<svg xmlns="http://www.w3.org/2000/svg" viewBox="0 0 512 512">
  <defs>
    <style>
      .cls-1 {
        fill: #555;
      }
    </style>
  </defs>
  <g id="Livello_2" data-name="Livello 2">
    <g id="Capa_1" data-name="Capa 1">
      <path class="cls-1" d="M256,0C114.85,0,0,114.84,0,256S114.85,512,256,512,512,397.16,512,256,397.15,0,256,0Zm0,492.31c-130.29,0-236.31-106-236.31-236.31S125.71,19.69,256,19.69,492.31,125.71,492.31,256,386.29,492.31,256,492.31Z"
      />
      <path class="cls-1" d="M351.58,160.42a9.84,9.84,0,0,0-13.92,0L256,242.08l-81.65-81.65a9.84,9.84,0,0,0-13.92,13.92L242.08,256l-81.65,81.65a9.84,9.84,0,1,0,13.92,13.92L256,269.92l81.65,81.65a9.84,9.84,0,0,0,13.92-13.92L269.92,256l81.65-81.65A9.84,9.84,0,0,0,351.58,160.42Z"
      />
    </g>
  </g>
</svg>