<svg xmlns="http://www.w3.org/2000/svg" viewBox="0 0 511.99 512"><defs><style>.cls-1{fill:#408eed;}</style></defs><title>a</title><g id="Livello_2" data-name="Livello 2"><g id="Capa_1" data-name="Capa 1"><path class="cls-1" d="M256,0C114.85,0,0,114.84,0,256S114.85,512,256,512,512,397.16,512,256,397.16,0,256,0Zm0,485.22C129.61,485.22,26.77,382.39,26.77,256S129.61,26.76,256,26.76,485.22,129.59,485.22,256,382.4,485.22,256,485.22Z"/><path class="cls-1" d="M279.67,131.88a14.78,14.78,0,0,0-12.48-8.17h-23a14.66,14.66,0,0,0-12.46,8.19L142,339.57c-2,4.52.46,8.19,5.39,8.19H184a14.11,14.11,0,0,0,12.19-8.32l12.14-30.87a14.09,14.09,0,0,1,12.19-8.3h69.17a14.28,14.28,0,0,1,12.29,8.26l12.58,30.94a14.31,14.31,0,0,0,12.29,8.28h37.84c4.93,0,7.33-3.66,5.37-8.19Zm-6.8,126.64H236c-4.93,0-7.47-3.73-5.68-8.32l20.71-53c1.79-4.6,4.72-4.6,6.54,0l21,53C280.32,254.81,277.81,258.53,272.87,258.53Z"/></g></g></svg>